{
  "source": "C:\\Users\\Peter\\Desktop\\stuff\\MIUN\\quantitative_research\\video_compression\\videos\\BVI-HD\\Lightreef_1920x1080_30fps.mp4",
  "output": "C:\\Users\\Peter\\Desktop\\stuff\\MIUN\\quantitative_research\\video_compression\\compressed_videos\\BVI-HD\\av1\\12\\Lightreef_1920x1080_30fps_av1.mkv",
  "codec": "av1",
  "ok": "Input #0, mov,mp4,m4a,3gp,3g2,mj2, from 'C:\\Users\\Peter\\Desktop\\stuff\\MIUN\\quantitative_research\\video_compression\\videos\\BVI-HD\\Lightreef_1920x1080_30fps.mp4':\n  Metadata:\n    major_brand     : isom\n    minor_version   : 512\n    compatible_brands: isomiso2avc1mp41\n    encoder         : Lavf54.28.101\n  Duration: 00:00:05.00, start: 0.000000, bitrate: 361719 kb/s\n  Stream #0:0[0x1](und): Video: h264 (High 4:4:4 Predictive) (avc1 / 0x31637661), yuv420p(progressive), 1920x1080, 361715 kb/s, 30 fps, 30 tbr, 30 tbn (default)\n    Metadata:\n      handler_name    : VideoHandler\n      vendor_id       : [0][0][0][0]\n[out#0/matroska @ 000001e3c89d9340] Codec AVOption b:a (set bitrate (in bits/s)) has not been used for any stream. The most likely reason is either wrong type (e.g. a video option with no video streams) or that it is a private option of some decoder which was not actually used for any stream.\nStream mapping:\n  Stream #0:0 -> #0:0 (h264 (native) -> av1 (libsvtav1))\nPress [q] to stop, [?] for help\nSvt[info]: -------------------------------------------\nSvt[info]: SVT [version]:\tSVT-AV1 Encoder Lib v3.1.0-19-g6ecfe8ec\nSvt[info]: SVT [build]  :\tGCC 15.2.0\t 64 bit\nSvt[info]: LIB Build date: Aug 17 2025 11:37:13\nSvt[info]: -------------------------------------------\nSvt[info]: Level of Parallelism: 5\nSvt[info]: Number of PPCS 93\nSvt[info]: [asm level on system : up to avx2]\nSvt[info]: [asm level selected : up to avx2]\nSvt[info]: -------------------------------------------\nSvt[info]: SVT [config]: main profile\ttier (auto)\tlevel (auto)\nSvt[info]: SVT [config]: width / height / fps numerator / fps denominator \t\t: 1920 / 1080 / 30 / 1\nSvt[info]: SVT [config]: bit-depth / color format \t\t\t\t\t: 8 / YUV420\nSvt[info]: SVT [config]: preset / tune / pred struct \t\t\t\t\t: 4 / PSNR / random access\nSvt[info]: SVT [config]: gop size / mini-gop size / key-frame type \t\t\t: 161 / 16 / key frame\nSvt[info]: SVT [config]: BRC mode / target bitrate (kbps)\t\t\t\t: VBR / 12000 \nSvt[info]: SVT [config]: AQ mode / Variance Boost \t\t\t\t\t: 2 / 0\nSvt[info]: SVT [config]: sharpness / luminance-based QP bias \t\t\t\t: 0 / 0\nSvt[info]: SVT [config]: QP scale compress strength \t\t\t\t\t: 0\nSvt[info]: -------------------------------------------\nOutput #0, matroska, to 'C:\\Users\\Peter\\Desktop\\stuff\\MIUN\\quantitative_research\\video_compression\\compressed_videos\\BVI-HD\\av1\\12\\Lightreef_1920x1080_30fps_av1.mkv':\n  Metadata:\n    major_brand     : isom\n    minor_version   : 512\n    compatible_brands: isomiso2avc1mp41\n    encoder         : Lavf62.3.100\n  Stream #0:0(und): Video: av1 (AV01 / 0x31305641), yuv420p(tv, progressive), 1920x1080, q=2-31, 12000 kb/s, 30 fps, 1k tbn (default)\n    Metadata:\n      encoder         : Lavc62.11.100 libsvtav1\n      handler_name    : VideoHandler\n      vendor_id       : [0][0][0][0]\n    Side data:\n      cpb: bitrate max/min/avg: 0/0/12000000 buffer size: 12000000 vbv_delay: N/A\nframe=    0 fps=0.0 q=0.0 size=       0KiB time=N/A bitrate=N/A speed=N/A elapsed=0:00:01.87    \nframe=    0 fps=0.0 q=0.0 size=       0KiB time=N/A bitrate=N/A speed=N/A elapsed=0:00:02.53    \nframe=    0 fps=0.0 q=0.0 size=       0KiB time=N/A bitrate=N/A speed=N/A elapsed=0:00:03.12    \nframe=    0 fps=0.0 q=0.0 size=       0KiB time=N/A bitrate=N/A speed=N/A elapsed=0:00:03.64    \nframe=    0 fps=0.0 q=0.0 size=       0KiB time=N/A bitrate=N/A speed=N/A elapsed=0:00:04.27    \nframe=    0 fps=0.0 q=0.0 size=       0KiB time=N/A bitrate=N/A speed=N/A elapsed=0:00:04.87    \nframe=    0 fps=0.0 q=0.0 size=       0KiB time=N/A bitrate=N/A speed=N/A elapsed=0:00:05.42    \nframe=    0 fps=0.0 q=0.0 size=       0KiB time=N/A bitrate=N/A speed=N/A elapsed=0:00:05.95    \nframe=    1 fps=0.2 q=15.0 size=       1KiB time=00:00:00.00 bitrate=N/A speed=   0x elapsed=0:00:06.47    \nframe=    1 fps=0.1 q=15.0 size=       1KiB time=00:00:00.00 bitrate=N/A speed=   0x elapsed=0:00:07.02    \nframe=    1 fps=0.1 q=15.0 size=       1KiB time=00:00:00.00 bitrate=N/A speed=   0x elapsed=0:00:07.57    \nframe=    1 fps=0.1 q=15.0 size=       1KiB time=00:00:00.00 bitrate=N/A speed=   0x elapsed=0:00:08.11    \nframe=    3 fps=0.3 q=25.0 size=       1KiB time=00:00:00.06 bitrate=  85.6kbits/s speed=0.00771x elapsed=0:00:08.64    \nframe=    6 fps=0.7 q=27.0 size=       1KiB time=00:00:00.16 bitrate=  34.2kbits/s speed=0.0182x elapsed=0:00:09.17    \nframe=    8 fps=0.8 q=27.0 size=       1KiB time=00:00:00.23 bitrate=  24.4kbits/s speed=0.0239x elapsed=0:00:09.74    \nframe=   10 fps=1.0 q=27.0 size=       1KiB time=00:00:00.30 bitrate=  19.0kbits/s speed=0.0291x elapsed=0:00:10.32    \nframe=   12 fps=1.1 q=34.0 size=       1KiB time=00:00:00.33 bitrate=  17.1kbits/s speed=0.0307x elapsed=0:00:10.86    \nframe=   16 fps=1.4 q=35.0 size=       1KiB time=00:00:00.46 bitrate=  12.2kbits/s speed=0.0409x elapsed=0:00:11.41    \nframe=   20 fps=1.7 q=33.0 size=       1KiB time=00:00:00.63 bitrate=   9.0kbits/s speed=0.0527x elapsed=0:00:12.02    \nframe=   23 fps=1.8 q=31.0 size=       1KiB time=00:00:00.73 bitrate=   7.8kbits/s speed=0.0582x elapsed=0:00:12.59    \nframe=   27 fps=2.1 q=32.0 size=       1KiB time=00:00:00.86 bitrate=   6.6kbits/s speed=0.0659x elapsed=0:00:13.14    \nframe=   31 fps=2.3 q=33.0 size=       1KiB time=00:00:00.93 bitrate=   6.1kbits/s speed=0.0679x elapsed=0:00:13.74    \nframe=   34 fps=2.4 q=34.0 size=       1KiB time=00:00:01.06 bitrate=   5.3kbits/s speed=0.0741x elapsed=0:00:14.39    \nframe=   38 fps=2.5 q=35.0 size=       1KiB time=00:00:01.23 bitrate=   4.6kbits/s speed=0.0825x elapsed=0:00:14.95    \nframe=   40 fps=2.6 q=34.0 size=       1KiB time=00:00:01.30 bitrate=   4.4kbits/s speed=0.084x elapsed=0:00:15.48    \nframe=   44 fps=2.7 q=34.0 size=       1KiB time=00:00:01.43 bitrate=   4.0kbits/s speed=0.0893x elapsed=0:00:16.05    \nframe=   48 fps=2.9 q=35.0 size=       1KiB time=00:00:01.56 bitrate=   3.6kbits/s speed=0.0943x elapsed=0:00:16.61    \nframe=   52 fps=3.0 q=33.0 size=       1KiB time=00:00:01.70 bitrate=   3.4kbits/s speed=0.099x elapsed=0:00:17.17    \nframe=   57 fps=3.2 q=31.0 size=       1KiB time=00:00:01.86 bitrate=   3.1kbits/s speed=0.105x elapsed=0:00:17.71    \nframe=   59 fps=3.2 q=35.0 size=       1KiB time=00:00:01.93 bitrate=   3.0kbits/s speed=0.106x elapsed=0:00:18.24    \nframe=   61 fps=3.2 q=33.0 size=       1KiB time=00:00:02.00 bitrate=   2.9kbits/s speed=0.106x elapsed=0:00:18.78    \nframe=   65 fps=3.4 q=26.0 size=       1KiB time=00:00:02.13 bitrate=   2.7kbits/s speed=0.11x elapsed=0:00:19.33    \nframe=   69 fps=3.5 q=33.0 size=       1KiB time=00:00:02.26 bitrate=   2.5kbits/s speed=0.114x elapsed=0:00:19.86    \nframe=   73 fps=3.6 q=32.0 size=       1KiB time=00:00:02.40 bitrate=   2.4kbits/s speed=0.117x elapsed=0:00:20.43    \nframe=   73 fps=3.5 q=32.0 size=       1KiB time=00:00:02.40 bitrate=   2.4kbits/s speed=0.114x elapsed=0:00:20.99    \nframe=   77 fps=3.6 q=32.0 size=       1KiB time=00:00:02.53 bitrate=   2.3kbits/s speed=0.118x elapsed=0:00:21.52    \nframe=   81 fps=3.7 q=26.0 size=       1KiB time=00:00:02.60 bitrate=   2.2kbits/s speed=0.118x elapsed=0:00:22.07    \nframe=   85 fps=3.8 q=33.0 size=    5120KiB time=00:00:02.73 bitrate=15345.0kbits/s speed=0.121x elapsed=0:00:22.65    \nframe=   87 fps=3.7 q=33.0 size=    5120KiB time=00:00:02.86 bitrate=14631.3kbits/s speed=0.123x elapsed=0:00:23.22    \nframe=   89 fps=3.7 q=31.0 size=    5120KiB time=00:00:02.93 bitrate=14298.8kbits/s speed=0.123x elapsed=0:00:23.75    \nframe=   93 fps=3.8 q=32.0 size=    5120KiB time=00:00:03.06 bitrate=13677.1kbits/s speed=0.126x elapsed=0:00:24.28    \nframe=   95 fps=3.8 q=34.0 size=    5120KiB time=00:00:03.06 bitrate=13677.1kbits/s speed=0.124x elapsed=0:00:24.82    \nframe=   97 fps=3.8 q=26.0 size=    5120KiB time=00:00:03.20 bitrate=13107.2kbits/s speed=0.126x elapsed=0:00:25.41    \nframe=  101 fps=3.9 q=33.0 size=    5120KiB time=00:00:03.33 bitrate=12582.9kbits/s speed=0.128x elapsed=0:00:25.94    \nframe=  105 fps=4.0 q=31.0 size=    5120KiB time=00:00:03.46 bitrate=12099.0kbits/s speed=0.131x elapsed=0:00:26.47    \nframe=  105 fps=3.9 q=31.0 size=    5120KiB time=00:00:03.46 bitrate=12099.0kbits/s speed=0.128x elapsed=0:00:27.00    \nframe=  109 fps=4.0 q=32.0 size=    5120KiB time=00:00:03.60 bitrate=11650.8kbits/s speed=0.131x elapsed=0:00:27.54    \nframe=  113 fps=4.0 q=26.0 size=    5120KiB time=00:00:03.73 bitrate=11234.7kbits/s speed=0.133x elapsed=0:00:28.11    \nframe=  115 fps=4.0 q=34.0 size=    5120KiB time=00:00:03.80 bitrate=11037.6kbits/s speed=0.133x elapsed=0:00:28.66    \nframe=  119 fps=4.1 q=34.0 size=    5120KiB time=00:00:03.93 bitrate=10663.5kbits/s speed=0.135x elapsed=0:00:29.18    \nframe=  121 fps=4.1 q=31.0 size=    5120KiB time=00:00:04.00 bitrate=10485.8kbits/s speed=0.135x elapsed=0:00:29.72    \nframe=  125 fps=4.1 q=33.0 size=    5120KiB time=00:00:04.06 bitrate=10313.9kbits/s speed=0.134x elapsed=0:00:30.26    \nframe=  125 fps=4.1 q=33.0 size=    5120KiB time=00:00:04.13 bitrate=10147.5kbits/s speed=0.134x elapsed=0:00:30.81    \nframe=  129 fps=4.1 q=26.0 size=    5120KiB time=00:00:04.26 bitrate=9830.4kbits/s speed=0.136x elapsed=0:00:31.33    \nframe=  133 fps=4.2 q=36.0 size=    5120KiB time=00:00:04.40 bitrate=9532.5kbits/s speed=0.138x elapsed=0:00:31.87    \nframe=  137 fps=4.2 q=32.0 size=    5120KiB time=00:00:04.53 bitrate=9252.1kbits/s speed=0.14x elapsed=0:00:32.44    \nframe=  137 fps=4.2 q=32.0 size=    5120KiB time=00:00:04.53 bitrate=9252.1kbits/s speed=0.138x elapsed=0:00:32.95    \nframe=  141 fps=4.2 q=36.0 size=    5120KiB time=00:00:04.66 bitrate=8987.8kbits/s speed=0.139x elapsed=0:00:33.48    \n[out#0/matroska @ 000001e3c89d9340] video:7851KiB audio:0KiB subtitle:0KiB other streams:0KiB global headers:0KiB muxing overhead: 0.018856%\nframe=  150 fps=4.4 q=38.0 Lsize=    7853KiB time=00:00:04.96 bitrate=12952.6kbits/s speed=0.147x elapsed=0:00:33.75    \n",
  "seconds": 34.5272650718689,
  "probe_out": {}
}